# xmcd
#
# Track frame offsets:
#	150
#	23095
#	54881
#	87872
#	132332
#	158513
#	184402
#	258928
#	285374
#
# Disc length: 4036 seconds
#
# Revision: 1
# Processed by: cddbd v1.5.2PL0 Copyright (c) Steve Scherf et al.
# Submitted via: audiograbber 1.83.01
#
DISCID=6a0fc209
DTITLE=Bohren and der Club of Gore - Sunset Mission 
DYEAR=1900
DGENRE=
TTITLE0=Prowler
TTITLE1=On Demon Wings
TTITLE2=Midnight Walker
TTITLE3=Street Tattoo
TTITLE4=Painless Steel
TTITLE5=Darkstalker
TTITLE6=Nightwolf
TTITLE7=Black City Skyline 	
TTITLE8=Dead End Angel
EXTD=
EXTT0=
EXTT1=
EXTT2=
EXTT3=
EXTT4=
EXTT5=
EXTT6=
EXTT7=
EXTT8=
PLAYORDER=
